<svg width="682" height="49" viewBox="0 0 682 49" fill="none" xmlns="http://www.w3.org/2000/svg">
<path d="M48 24C48 37.2548 37.2548 48 24 48C10.7452 48 0 37.2548 0 24C0 10.7452 10.7452 0 24 0C37.2548 0 48 10.7452 48 24Z" fill="#0F0B41"/>
<path d="M363 25C363 38.2548 352.255 49 339 49C325.745 49 315 38.2548 315 25C315 11.7452 325.745 1 339 1C352.255 1 363 11.7452 363 25Z" fill="#E8E8E8"/>
<path d="M678 25C678 38.2548 667.255 49 654 49C640.745 49 630 38.2548 630 25C630 11.7452 640.745 1 654 1C667.255 1 678 11.7452 678 25Z" fill="#E8E8E8"/>
<path d="M343.988 27.4719L340.084 24.5439V18.5796C340.084 17.9799 339.599 17.4951 338.999 17.4951C338.4 17.4951 337.915 17.9799 337.915 18.5796V25.0862C337.915 25.4278 338.076 25.7499 338.349 25.9537L342.687 29.207C342.882 29.3534 343.109 29.4239 343.336 29.4239C343.667 29.4239 343.992 29.2754 344.205 28.9891C344.565 28.5108 344.467 27.8308 343.988 27.4719Z" fill="white"/>
<path d="M339 11C331.28 11 325 17.2799 325 25C325 32.7201 331.28 39 339 39C346.72 39 353 32.7201 353 25C353 17.2799 346.72 11 339 11ZM339 36.8311C332.477 36.8311 327.169 31.5229 327.169 25C327.169 18.4771 332.477 13.1689 339 13.1689C345.524 13.1689 350.831 18.4771 350.831 25C350.831 31.5229 345.523 36.8311 339 36.8311Z" fill="white"/>
<path d="M24.5938 32.487V34.1132C24.5938 34.6025 24.1974 34.9989 23.7081 34.9989C23.2115 35.0235 22.789 34.6403 22.7658 34.1437C22.7658 34.1335 22.7643 34.1234 22.7643 34.1132V32.5161C20.7476 32.4507 18.8194 31.6739 17.3196 30.3236C17.1134 30.1145 16.9987 29.8328 17.0001 29.5396C16.9914 28.8688 17.5068 28.3083 18.1762 28.2618C18.4404 28.2676 18.696 28.3592 18.9022 28.5232C19.9969 29.4438 21.3327 30.0318 22.7498 30.222V24.4141C20.0637 23.6882 17.2614 22.7734 17.2614 19.4775C17.2614 16.7914 19.4829 14.7732 22.7498 14.5409V12.8857C22.7571 12.3993 23.1491 12.0073 23.6355 12C24.1248 12 24.5212 12.3964 24.5212 12.8857V14.6135C26.1952 14.7093 27.7924 15.3525 29.0657 16.443C29.2719 16.652 29.3866 16.9337 29.3852 17.227C29.3779 17.9109 28.8204 18.4612 28.1365 18.4612C27.9231 18.4582 27.7169 18.3929 27.5412 18.2724C26.6599 17.5987 25.629 17.15 24.5357 16.9656V22.062C27.2218 22.788 30.0966 23.8333 30.0966 27.2599C30.1547 29.8154 28.5576 32.2256 24.5938 32.487ZM22.7643 16.8495C21.0655 16.9802 19.9475 17.953 19.9475 19.3033C19.9475 20.6536 21.1817 21.1328 22.7643 21.5974V16.8495ZM24.5938 24.9659V30.251C26.7426 29.9896 27.4976 28.6829 27.4976 27.5794C27.5121 26.0549 26.2345 25.4305 24.5938 24.9659Z" fill="white"/>
<path d="M48 24C48 37.2548 37.2548 48 24 48C10.7452 48 0 37.2548 0 24C0 10.7452 10.7452 0 24 0C37.2548 0 48 10.7452 48 24Z" fill="#0F0B41"/>
<path d="M24.5938 32.487V34.1132C24.5938 34.6025 24.1974 34.9989 23.7081 34.9989C23.2115 35.0235 22.789 34.6403 22.7658 34.1437C22.7658 34.1335 22.7643 34.1234 22.7643 34.1132V32.5161C20.7476 32.4507 18.8194 31.6739 17.3196 30.3236C17.1134 30.1145 16.9987 29.8328 17.0001 29.5396C16.9914 28.8688 17.5068 28.3083 18.1762 28.2618C18.4404 28.2676 18.696 28.3592 18.9022 28.5232C19.9969 29.4438 21.3327 30.0318 22.7498 30.222V24.4141C20.0637 23.6882 17.2614 22.7734 17.2614 19.4775C17.2614 16.7914 19.4829 14.7732 22.7498 14.5409V12.8857C22.7571 12.3993 23.1491 12.0073 23.6355 12C24.1248 12 24.5212 12.3964 24.5212 12.8857V14.6135C26.1952 14.7093 27.7924 15.3525 29.0657 16.443C29.2719 16.652 29.3866 16.9337 29.3852 17.227C29.3779 17.9109 28.8204 18.4612 28.1365 18.4612C27.9231 18.4582 27.7169 18.3929 27.5412 18.2724C26.6599 17.5987 25.629 17.15 24.5357 16.9656V22.062C27.2218 22.788 30.0966 23.8333 30.0966 27.2599C30.1547 29.8154 28.5576 32.2256 24.5938 32.487ZM22.7643 16.8495C21.0655 16.9802 19.9475 17.953 19.9475 19.3033C19.9475 20.6536 21.1817 21.1328 22.7643 21.5974V16.8495ZM24.5938 24.9659V30.251C26.7426 29.9896 27.4976 28.6829 27.4976 27.5794C27.5121 26.0549 26.2345 25.4305 24.5938 24.9659Z" fill="white"/>
<path d="M647.03 16.3594V26.8115C647.03 28.473 646.497 29.7907 645.43 30.7646C644.37 31.7314 642.955 32.2148 641.187 32.2148C639.396 32.2148 637.975 31.7386 636.922 30.7861C635.869 29.8265 635.343 28.498 635.343 26.8008V16.3594H638.05V26.8223C638.05 27.8678 638.315 28.6663 638.845 29.2178C639.375 29.7692 640.155 30.0449 641.187 30.0449C643.278 30.0449 644.323 28.9421 644.323 26.7363V16.3594H647.03ZM658.116 27.9717C658.116 27.2842 657.873 26.7542 657.386 26.3818C656.906 26.0094 656.036 25.6335 654.775 25.2539C653.515 24.8743 652.512 24.4518 651.768 23.9863C650.342 23.0911 649.63 21.9238 649.63 20.4844C649.63 19.224 650.142 18.1855 651.166 17.3691C652.197 16.5527 653.533 16.1445 655.173 16.1445C656.261 16.1445 657.232 16.3451 658.084 16.7461C658.936 17.1471 659.606 17.7201 660.093 18.4648C660.58 19.2025 660.823 20.0225 660.823 20.9248H658.116C658.116 20.1084 657.858 19.471 657.343 19.0127C656.834 18.5472 656.104 18.3145 655.151 18.3145C654.263 18.3145 653.572 18.5042 653.078 18.8838C652.591 19.2633 652.348 19.7933 652.348 20.4736C652.348 21.0465 652.613 21.5264 653.143 21.9131C653.673 22.2926 654.546 22.665 655.764 23.0303C656.981 23.3883 657.959 23.8001 658.696 24.2656C659.434 24.724 659.975 25.2539 660.318 25.8555C660.662 26.4499 660.834 27.1481 660.834 27.9502C660.834 29.2536 660.333 30.292 659.33 31.0654C658.335 31.8317 656.981 32.2148 655.27 32.2148C654.138 32.2148 653.096 32.0072 652.144 31.5918C651.198 31.1693 650.461 30.5892 649.931 29.8516C649.408 29.1139 649.146 28.2546 649.146 27.2734H651.864C651.864 28.1615 652.158 28.849 652.745 29.3359C653.332 29.8229 654.174 30.0664 655.27 30.0664C656.215 30.0664 656.924 29.8766 657.396 29.4971C657.876 29.1104 658.116 28.6019 658.116 27.9717ZM670.427 27.918C670.427 27.3092 670.233 26.8079 669.847 26.4141C669.46 26.013 668.815 25.6549 667.913 25.3398C667.011 25.0176 666.309 24.7204 665.808 24.4482C664.139 23.5531 663.305 22.2282 663.305 20.4736C663.305 19.2848 663.666 18.3073 664.39 17.541C665.113 16.7747 666.094 16.32 667.333 16.1768V13.835H669.052V16.1982C670.298 16.3773 671.261 16.9072 671.941 17.7881C672.622 18.6618 672.962 19.8005 672.962 21.2041H670.362C670.362 20.3018 670.158 19.5928 669.75 19.0771C669.349 18.5544 668.801 18.293 668.106 18.293C667.419 18.293 666.882 18.4792 666.495 18.8516C666.108 19.224 665.915 19.7575 665.915 20.4521C665.915 21.0752 666.105 21.5765 666.484 21.9561C666.871 22.3285 667.523 22.6829 668.439 23.0195C669.356 23.3561 670.076 23.6676 670.599 23.9541C671.121 24.2406 671.562 24.57 671.92 24.9424C672.278 25.3076 672.554 25.7301 672.747 26.21C672.94 26.6898 673.037 27.252 673.037 27.8965C673.037 29.1068 672.665 30.0879 671.92 30.8398C671.182 31.5918 670.151 32.0358 668.826 32.1719V34.2666H667.118V32.1826C665.7 32.0251 664.608 31.5166 663.842 30.6572C663.083 29.7979 662.703 28.6592 662.703 27.2412H665.313C665.313 28.1436 665.539 28.8418 665.99 29.3359C666.449 29.8301 667.093 30.0771 667.924 30.0771C668.74 30.0771 669.36 29.8802 669.782 29.4863C670.212 29.0924 670.427 28.5697 670.427 27.918Z" fill="white"/>
<circle cx="94" cy="24" r="2" fill="#C4C4C4"/>
<circle cx="101" cy="24" r="2" fill="#C4C4C4"/>
<circle cx="108" cy="24" r="2" fill="#C4C4C4"/>
<circle cx="115" cy="24" r="2" fill="#C4C4C4"/>
<circle cx="122" cy="24" r="2" fill="#C4C4C4"/>
<circle cx="129" cy="24" r="2" fill="#C4C4C4"/>
<circle cx="136" cy="24" r="2" fill="#C4C4C4"/>
<circle cx="143" cy="24" r="2" fill="#C4C4C4"/>
<circle cx="206" cy="24" r="2" fill="#C4C4C4"/>
<circle cx="213" cy="24" r="2" fill="#C4C4C4"/>
<circle cx="220" cy="24" r="2" fill="#C4C4C4"/>
<circle cx="227" cy="24" r="2" fill="#C4C4C4"/>
<circle cx="234" cy="24" r="2" fill="#C4C4C4"/>
<circle cx="241" cy="24" r="2" fill="#C4C4C4"/>
<circle cx="248" cy="24" r="2" fill="#C4C4C4"/>
<circle cx="255" cy="24" r="2" fill="#C4C4C4"/>
<circle cx="262" cy="24" r="2" fill="#C4C4C4"/>
<circle cx="269" cy="24" r="2" fill="#C4C4C4"/>
<circle cx="276" cy="24" r="2" fill="#C4C4C4"/>
<circle cx="150" cy="24" r="2" fill="#C4C4C4"/>
<circle cx="157" cy="24" r="2" fill="#C4C4C4"/>
<circle cx="164" cy="24" r="2" fill="#C4C4C4"/>
<circle cx="171" cy="24" r="2" fill="#C4C4C4"/>
<circle cx="178" cy="24" r="2" fill="#C4C4C4"/>
<circle cx="185" cy="24" r="2" fill="#C4C4C4"/>
<circle cx="192" cy="24" r="2" fill="#C4C4C4"/>
<circle cx="199" cy="24" r="2" fill="#C4C4C4"/>
<circle cx="406" cy="26" r="2" fill="#C4C4C4"/>
<circle cx="413" cy="26" r="2" fill="#C4C4C4"/>
<circle cx="420" cy="26" r="2" fill="#C4C4C4"/>
<circle cx="427" cy="26" r="2" fill="#C4C4C4"/>
<circle cx="434" cy="26" r="2" fill="#C4C4C4"/>
<circle cx="441" cy="26" r="2" fill="#C4C4C4"/>
<circle cx="448" cy="26" r="2" fill="#C4C4C4"/>
<circle cx="455" cy="26" r="2" fill="#C4C4C4"/>
<circle cx="518" cy="26" r="2" fill="#C4C4C4"/>
<circle cx="525" cy="26" r="2" fill="#C4C4C4"/>
<circle cx="532" cy="26" r="2" fill="#C4C4C4"/>
<circle cx="539" cy="26" r="2" fill="#C4C4C4"/>
<circle cx="546" cy="26" r="2" fill="#C4C4C4"/>
<circle cx="553" cy="26" r="2" fill="#C4C4C4"/>
<circle cx="560" cy="26" r="2" fill="#C4C4C4"/>
<circle cx="567" cy="26" r="2" fill="#C4C4C4"/>
<circle cx="574" cy="26" r="2" fill="#C4C4C4"/>
<circle cx="581" cy="26" r="2" fill="#C4C4C4"/>
<circle cx="588" cy="26" r="2" fill="#C4C4C4"/>
<circle cx="462" cy="26" r="2" fill="#C4C4C4"/>
<circle cx="469" cy="26" r="2" fill="#C4C4C4"/>
<circle cx="476" cy="26" r="2" fill="#C4C4C4"/>
<circle cx="483" cy="26" r="2" fill="#C4C4C4"/>
<circle cx="490" cy="26" r="2" fill="#C4C4C4"/>
<circle cx="497" cy="26" r="2" fill="#C4C4C4"/>
<circle cx="504" cy="26" r="2" fill="#C4C4C4"/>
<circle cx="511" cy="26" r="2" fill="#C4C4C4"/>
</svg>
