<svg width="830" height="89" viewBox="0 0 830 89" fill="none" xmlns="http://www.w3.org/2000/svg">
<path d="M64.9455 43.2975C64.9455 59.2391 52.0223 72.1623 36.0807 72.1623C20.1391 72.1623 7.21582 59.2391 7.21582 43.2975C7.21582 27.3559 20.1391 14.4326 36.0807 14.4326C52.0223 14.4326 64.9455 27.3559 64.9455 43.2975Z" fill="#0F0B41"/>
<path d="M443.797 44.4996C443.797 60.4413 430.874 73.3645 414.932 73.3645C398.991 73.3645 386.067 60.4413 386.067 44.4996C386.067 28.558 398.991 15.6348 414.932 15.6348C430.874 15.6348 443.797 28.558 443.797 44.4996Z" fill="#E8E8E8"/>
<path d="M822.649 44.4996C822.649 60.4413 809.725 73.3645 793.784 73.3645C777.842 73.3645 764.919 60.4413 764.919 44.4996C764.919 28.558 777.842 15.6348 793.784 15.6348C809.725 15.6348 822.649 28.558 822.649 44.4996Z" fill="#E8E8E8"/>
<g clip-path="url(#clip0)">
<path d="M420.932 47.4737L416.236 43.9522V36.7789C416.236 36.0576 415.653 35.4746 414.932 35.4746C414.211 35.4746 413.628 36.0576 413.628 36.7789V44.6044C413.628 45.0152 413.821 45.4026 414.15 45.6478L419.367 49.5606C419.601 49.7367 419.875 49.8214 420.148 49.8214C420.546 49.8214 420.937 49.6427 421.193 49.2984C421.626 48.7232 421.508 47.9054 420.932 47.4737Z" fill="white"/>
<path d="M414.933 27.6621C405.648 27.6621 398.095 35.215 398.095 44.4999C398.095 53.7849 405.648 61.3378 414.933 61.3378C424.218 61.3378 431.77 53.7849 431.77 44.4999C431.77 35.215 424.218 27.6621 414.933 27.6621ZM414.933 58.7293C407.088 58.7293 400.703 52.345 400.703 44.4999C400.703 36.6549 407.088 30.2706 414.933 30.2706C422.779 30.2706 429.162 36.6549 429.162 44.4999C429.162 52.345 422.778 58.7293 414.933 58.7293Z" fill="white"/>
</g>
<path d="M36.7951 53.505V55.4608C36.7951 56.0493 36.3184 56.526 35.7299 56.526C35.1327 56.5557 34.6246 56.0947 34.5966 55.4975C34.5966 55.4853 34.5949 55.4731 34.5949 55.4608V53.5399C32.1693 53.4614 29.8503 52.5271 28.0464 50.9031C27.7984 50.6516 27.6605 50.3128 27.6622 49.9601C27.6518 49.1534 28.2717 48.4793 29.0767 48.4234C29.3945 48.4304 29.7019 48.5404 29.9499 48.7377C31.2665 49.8449 32.8731 50.5521 34.5774 50.7809V43.7958C31.3468 42.9227 27.9765 41.8225 27.9765 37.8585C27.9765 34.6279 30.6483 32.2006 34.5774 31.9212V29.9305C34.5861 29.3454 35.0576 28.874 35.6426 28.8652C36.2311 28.8652 36.7078 29.342 36.7078 29.9305V32.0085C38.7213 32.1237 40.6422 32.8973 42.1736 34.2088C42.4216 34.4603 42.5595 34.7991 42.5578 35.1518C42.5491 35.9742 41.8785 36.6361 41.056 36.6361C40.7993 36.6326 40.5514 36.554 40.34 36.4091C39.2801 35.5988 38.0402 35.0592 36.7253 34.8374V40.9668C39.9559 41.8399 43.4135 43.0972 43.4135 47.2184C43.4833 50.2919 41.5624 53.1907 36.7951 53.505ZM34.5948 34.6978C32.5517 34.8549 31.2071 36.0249 31.2071 37.649C31.2071 39.273 32.6914 39.8493 34.5948 40.408V34.6978ZM36.7951 44.4593V50.8157C39.3796 50.5014 40.2876 48.9298 40.2876 47.6026C40.3051 45.769 38.7684 45.0182 36.7951 44.4593Z" fill="white"/>
<path d="M785.03 39.3594V49.8115C785.03 51.473 784.497 52.7907 783.43 53.7646C782.37 54.7314 780.955 55.2148 779.187 55.2148C777.396 55.2148 775.975 54.7386 774.922 53.7861C773.869 52.8265 773.343 51.498 773.343 49.8008V39.3594H776.05V49.8223C776.05 50.8678 776.315 51.6663 776.845 52.2178C777.375 52.7692 778.155 53.0449 779.187 53.0449C781.278 53.0449 782.323 51.9421 782.323 49.7363V39.3594H785.03ZM796.116 50.9717C796.116 50.2842 795.873 49.7542 795.386 49.3818C794.906 49.0094 794.036 48.6335 792.775 48.2539C791.515 47.8743 790.512 47.4518 789.768 46.9863C788.342 46.0911 787.63 44.9238 787.63 43.4844C787.63 42.224 788.142 41.1855 789.166 40.3691C790.197 39.5527 791.533 39.1445 793.173 39.1445C794.261 39.1445 795.232 39.3451 796.084 39.7461C796.936 40.1471 797.606 40.7201 798.093 41.4648C798.58 42.2025 798.823 43.0225 798.823 43.9248H796.116C796.116 43.1084 795.858 42.471 795.343 42.0127C794.834 41.5472 794.104 41.3145 793.151 41.3145C792.263 41.3145 791.572 41.5042 791.078 41.8838C790.591 42.2633 790.348 42.7933 790.348 43.4736C790.348 44.0465 790.613 44.5264 791.143 44.9131C791.673 45.2926 792.546 45.665 793.764 46.0303C794.981 46.3883 795.959 46.8001 796.696 47.2656C797.434 47.724 797.975 48.2539 798.318 48.8555C798.662 49.4499 798.834 50.1481 798.834 50.9502C798.834 52.2536 798.333 53.292 797.33 54.0654C796.335 54.8317 794.981 55.2148 793.27 55.2148C792.138 55.2148 791.096 55.0072 790.144 54.5918C789.198 54.1693 788.461 53.5892 787.931 52.8516C787.408 52.1139 787.146 51.2546 787.146 50.2734H789.864C789.864 51.1615 790.158 51.849 790.745 52.3359C791.332 52.8229 792.174 53.0664 793.27 53.0664C794.215 53.0664 794.924 52.8766 795.396 52.4971C795.876 52.1104 796.116 51.6019 796.116 50.9717ZM808.427 50.918C808.427 50.3092 808.233 49.8079 807.847 49.4141C807.46 49.013 806.815 48.6549 805.913 48.3398C805.011 48.0176 804.309 47.7204 803.808 47.4482C802.139 46.5531 801.305 45.2282 801.305 43.4736C801.305 42.2848 801.666 41.3073 802.39 40.541C803.113 39.7747 804.094 39.32 805.333 39.1768V36.835H807.052V39.1982C808.298 39.3773 809.261 39.9072 809.941 40.7881C810.622 41.6618 810.962 42.8005 810.962 44.2041H808.362C808.362 43.3018 808.158 42.5928 807.75 42.0771C807.349 41.5544 806.801 41.293 806.106 41.293C805.419 41.293 804.882 41.4792 804.495 41.8516C804.108 42.224 803.915 42.7575 803.915 43.4521C803.915 44.0752 804.105 44.5765 804.484 44.9561C804.871 45.3285 805.523 45.6829 806.439 46.0195C807.356 46.3561 808.076 46.6676 808.599 46.9541C809.121 47.2406 809.562 47.57 809.92 47.9424C810.278 48.3076 810.554 48.7301 810.747 49.21C810.94 49.6898 811.037 50.252 811.037 50.8965C811.037 52.1068 810.665 53.0879 809.92 53.8398C809.182 54.5918 808.151 55.0358 806.826 55.1719V57.2666H805.118V55.1826C803.7 55.0251 802.608 54.5166 801.842 53.6572C801.083 52.7979 800.703 51.6592 800.703 50.2412H803.313C803.313 51.1436 803.539 51.8418 803.99 52.3359C804.449 52.8301 805.093 53.0771 805.924 53.0771C806.74 53.0771 807.36 52.8802 807.782 52.4863C808.212 52.0924 808.427 51.5697 808.427 50.918Z" fill="white"/>
<circle cx="117.864" cy="43.297" r="2.40541" fill="#C4C4C4"/>
<circle cx="126.283" cy="43.297" r="2.40541" fill="#C4C4C4"/>
<circle cx="134.702" cy="43.297" r="2.40541" fill="#C4C4C4"/>
<circle cx="143.121" cy="43.297" r="2.40541" fill="#C4C4C4"/>
<circle cx="151.54" cy="43.297" r="2.40541" fill="#C4C4C4"/>
<circle cx="159.959" cy="43.297" r="2.40541" fill="#C4C4C4"/>
<circle cx="168.378" cy="43.297" r="2.40541" fill="#C4C4C4"/>
<circle cx="176.797" cy="43.297" r="2.40541" fill="#C4C4C4"/>
<circle cx="252.568" cy="43.297" r="2.40541" fill="#C4C4C4"/>
<circle cx="260.986" cy="43.297" r="2.40541" fill="#C4C4C4"/>
<circle cx="269.405" cy="43.297" r="2.40541" fill="#C4C4C4"/>
<circle cx="277.824" cy="43.297" r="2.40541" fill="#C4C4C4"/>
<circle cx="286.243" cy="43.297" r="2.40541" fill="#C4C4C4"/>
<circle cx="294.662" cy="43.297" r="2.40541" fill="#C4C4C4"/>
<circle cx="303.081" cy="43.297" r="2.40541" fill="#C4C4C4"/>
<circle cx="311.5" cy="43.297" r="2.40541" fill="#C4C4C4"/>
<circle cx="319.919" cy="43.297" r="2.40541" fill="#C4C4C4"/>
<circle cx="328.338" cy="43.297" r="2.40541" fill="#C4C4C4"/>
<circle cx="336.757" cy="43.297" r="2.40541" fill="#C4C4C4"/>
<circle cx="185.216" cy="43.297" r="2.40541" fill="#C4C4C4"/>
<circle cx="193.635" cy="43.297" r="2.40541" fill="#C4C4C4"/>
<circle cx="202.054" cy="43.297" r="2.40541" fill="#C4C4C4"/>
<circle cx="210.473" cy="43.297" r="2.40541" fill="#C4C4C4"/>
<circle cx="218.892" cy="43.297" r="2.40541" fill="#C4C4C4"/>
<circle cx="227.311" cy="43.297" r="2.40541" fill="#C4C4C4"/>
<circle cx="235.73" cy="43.297" r="2.40541" fill="#C4C4C4"/>
<circle cx="244.149" cy="43.297" r="2.40541" fill="#C4C4C4"/>
<circle cx="493.109" cy="45.7033" r="2.40541" fill="#C4C4C4"/>
<circle cx="501.527" cy="45.7033" r="2.40541" fill="#C4C4C4"/>
<circle cx="509.946" cy="45.7033" r="2.40541" fill="#C4C4C4"/>
<circle cx="518.364" cy="45.7033" r="2.40541" fill="#C4C4C4"/>
<circle cx="526.783" cy="45.7033" r="2.40541" fill="#C4C4C4"/>
<circle cx="535.202" cy="45.7033" r="2.40541" fill="#C4C4C4"/>
<circle cx="543.621" cy="45.7033" r="2.40541" fill="#C4C4C4"/>
<circle cx="552.04" cy="45.7033" r="2.40541" fill="#C4C4C4"/>
<circle cx="627.811" cy="45.7033" r="2.40541" fill="#C4C4C4"/>
<circle cx="636.23" cy="45.7033" r="2.40541" fill="#C4C4C4"/>
<circle cx="644.649" cy="45.7033" r="2.40541" fill="#C4C4C4"/>
<circle cx="653.068" cy="45.7033" r="2.40541" fill="#C4C4C4"/>
<circle cx="661.486" cy="45.7033" r="2.40541" fill="#C4C4C4"/>
<circle cx="669.905" cy="45.7033" r="2.40541" fill="#C4C4C4"/>
<circle cx="678.324" cy="45.7033" r="2.40541" fill="#C4C4C4"/>
<circle cx="686.743" cy="45.7033" r="2.40541" fill="#C4C4C4"/>
<circle cx="695.162" cy="45.7033" r="2.40541" fill="#C4C4C4"/>
<circle cx="703.581" cy="45.7033" r="2.40541" fill="#C4C4C4"/>
<circle cx="712" cy="45.7033" r="2.40541" fill="#C4C4C4"/>
<circle cx="560.459" cy="45.7033" r="2.40541" fill="#C4C4C4"/>
<circle cx="568.878" cy="45.7033" r="2.40541" fill="#C4C4C4"/>
<circle cx="577.297" cy="45.7033" r="2.40541" fill="#C4C4C4"/>
<circle cx="585.716" cy="45.7033" r="2.40541" fill="#C4C4C4"/>
<circle cx="594.135" cy="45.7033" r="2.40541" fill="#C4C4C4"/>
<circle cx="602.554" cy="45.7033" r="2.40541" fill="#C4C4C4"/>
<circle cx="610.973" cy="45.7033" r="2.40541" fill="#C4C4C4"/>
<circle cx="619.392" cy="45.7033" r="2.40541" fill="#C4C4C4"/>
<defs>
<clipPath id="clip0">
<rect width="33.6757" height="33.6757" fill="white" transform="translate(398.095 27.6621)"/>
</clipPath>
</defs>
</svg>
