<svg width="56" height="195" viewBox="0 0 56 195" fill="none" xmlns="http://www.w3.org/2000/svg">
<path d="M45 21.5C45 31.165 37.165 39 27.5 39C17.835 39 10 31.165 10 21.5C10 11.835 17.835 4 27.5 4C37.165 4 45 11.835 45 21.5Z" fill="#0F0B41"/>
<path d="M27.7986 28.1426V29.3445C27.7986 29.7062 27.4959 29.9992 27.1224 29.9992C26.7432 30.0174 26.4207 29.7341 26.403 29.3671C26.403 29.3596 26.4019 29.3521 26.4019 29.3445V28.164C24.8621 28.1158 23.39 27.5416 22.2449 26.5435C22.0875 26.389 22 26.1808 22.0011 25.964C21.9944 25.4682 22.3879 25.054 22.899 25.0196C23.1007 25.0239 23.2958 25.0915 23.4532 25.2128C24.289 25.8932 25.3089 26.3278 26.3908 26.4684V22.1757C24.34 21.6391 22.2006 20.963 22.2006 18.5269C22.2006 16.5415 23.8966 15.0498 26.3907 14.8781V13.6546C26.3963 13.2951 26.6956 13.0054 27.0669 13C27.4405 13 27.7431 13.293 27.7431 13.6546V14.9317C29.0212 15.0025 30.2406 15.4779 31.2128 16.2839C31.3702 16.4385 31.4578 16.6467 31.4567 16.8634C31.4511 17.3689 31.0254 17.7756 30.5033 17.7756C30.3404 17.7735 30.183 17.7252 30.0488 17.6361C29.376 17.1382 28.5889 16.8066 27.7542 16.6703V20.4371C29.805 20.9737 31.9998 21.7464 31.9998 24.2791C32.0442 26.1679 30.8248 27.9494 27.7986 28.1426ZM26.4018 16.5844C25.1049 16.681 24.2513 17.4 24.2513 18.3981C24.2513 19.3962 25.1935 19.7503 26.4018 20.0937V16.5844ZM27.7986 22.5835V26.4898C29.4391 26.2967 30.0156 25.3308 30.0156 24.5152C30.0266 23.3884 29.0512 22.9269 27.7986 22.5835Z" fill="white"/>
<path d="M45.001 173.5C45.001 183.165 37.166 191 27.501 191C17.836 191 10.001 183.165 10.001 173.5C10.001 163.835 17.836 156 27.501 156C37.166 156 45.001 163.835 45.001 173.5Z" fill="#E8E8E8"/>
<path d="M23.5781 169.406V175.107C23.5781 176.014 23.2871 176.732 22.7051 177.264C22.127 177.791 21.3555 178.055 20.3906 178.055C19.4141 178.055 18.6387 177.795 18.0645 177.275C17.4902 176.752 17.2031 176.027 17.2031 175.102V169.406H18.6797V175.113C18.6797 175.684 18.8242 176.119 19.1133 176.42C19.4023 176.721 19.8281 176.871 20.3906 176.871C21.5312 176.871 22.1016 176.27 22.1016 175.066V169.406H23.5781ZM29.625 175.74C29.625 175.365 29.4922 175.076 29.2266 174.873C28.9648 174.67 28.4902 174.465 27.8027 174.258C27.1152 174.051 26.5684 173.82 26.1621 173.566C25.3848 173.078 24.9961 172.441 24.9961 171.656C24.9961 170.969 25.2754 170.402 25.834 169.957C26.3965 169.512 27.125 169.289 28.0195 169.289C28.6133 169.289 29.1426 169.398 29.6074 169.617C30.0723 169.836 30.4375 170.148 30.7031 170.555C30.9688 170.957 31.1016 171.404 31.1016 171.896H29.625C29.625 171.451 29.4844 171.104 29.2031 170.854C28.9258 170.6 28.5273 170.473 28.0078 170.473C27.5234 170.473 27.1465 170.576 26.877 170.783C26.6113 170.99 26.4785 171.279 26.4785 171.65C26.4785 171.963 26.623 172.225 26.9121 172.436C27.2012 172.643 27.6777 172.846 28.3418 173.045C29.0059 173.24 29.5391 173.465 29.9414 173.719C30.3438 173.969 30.6387 174.258 30.8262 174.586C31.0137 174.91 31.1074 175.291 31.1074 175.729C31.1074 176.439 30.834 177.006 30.2871 177.428C29.7441 177.846 29.0059 178.055 28.0723 178.055C27.4551 178.055 26.8867 177.941 26.3672 177.715C25.8516 177.484 25.4492 177.168 25.1602 176.766C24.875 176.363 24.7324 175.895 24.7324 175.359H26.2148C26.2148 175.844 26.375 176.219 26.6953 176.484C27.0156 176.75 27.4746 176.883 28.0723 176.883C28.5879 176.883 28.9746 176.779 29.2324 176.572C29.4941 176.361 29.625 176.084 29.625 175.74ZM36.3398 175.711C36.3398 175.379 36.2344 175.105 36.0234 174.891C35.8125 174.672 35.4609 174.477 34.9688 174.305C34.4766 174.129 34.0938 173.967 33.8203 173.818C32.9102 173.33 32.4551 172.607 32.4551 171.65C32.4551 171.002 32.6523 170.469 33.0469 170.051C33.4414 169.633 33.9766 169.385 34.6523 169.307V168.029H35.5898V169.318C36.2695 169.416 36.7949 169.705 37.166 170.186C37.5371 170.662 37.7227 171.283 37.7227 172.049H36.3047C36.3047 171.557 36.1934 171.17 35.9707 170.889C35.752 170.604 35.4531 170.461 35.0742 170.461C34.6992 170.461 34.4062 170.562 34.1953 170.766C33.9844 170.969 33.8789 171.26 33.8789 171.639C33.8789 171.979 33.9824 172.252 34.1895 172.459C34.4004 172.662 34.7559 172.855 35.2559 173.039C35.7559 173.223 36.1484 173.393 36.4336 173.549C36.7188 173.705 36.959 173.885 37.1543 174.088C37.3496 174.287 37.5 174.518 37.6055 174.779C37.7109 175.041 37.7637 175.348 37.7637 175.699C37.7637 176.359 37.5605 176.895 37.1543 177.305C36.752 177.715 36.1895 177.957 35.4668 178.031V179.174H34.5352V178.037C33.7617 177.951 33.166 177.674 32.748 177.205C32.334 176.736 32.127 176.115 32.127 175.342H33.5508C33.5508 175.834 33.6738 176.215 33.9199 176.484C34.1699 176.754 34.5215 176.889 34.9746 176.889C35.4199 176.889 35.7578 176.781 35.9883 176.566C36.2227 176.352 36.3398 176.066 36.3398 175.711Z" fill="white"/>
<path d="M45.001 98.5C45.001 108.165 37.166 116 27.501 116C17.836 116 10.001 108.165 10.001 98.5C10.001 88.835 17.836 81 27.501 81C37.166 81 45.001 88.835 45.001 98.5Z" fill="#E8E8E8"/>
<circle cx="27.4311" cy="77.4674" r="1.43011" transform="rotate(-90 27.4311 77.4674)" fill="#C4C4C4"/>
<circle cx="27.4311" cy="72.4625" r="1.43011" transform="rotate(-90 27.4311 72.4625)" fill="#C4C4C4"/>
<circle cx="27.4311" cy="67.4566" r="1.43011" transform="rotate(-90 27.4311 67.4566)" fill="#C4C4C4"/>
<circle cx="27.4311" cy="62.4517" r="1.43011" transform="rotate(-90 27.4311 62.4517)" fill="#C4C4C4"/>
<circle cx="27.4311" cy="57.4459" r="1.43011" transform="rotate(-90 27.4311 57.4459)" fill="#C4C4C4"/>
<circle cx="27.4311" cy="52.441" r="1.43011" transform="rotate(-90 27.4311 52.441)" fill="#C4C4C4"/>
<circle cx="27.4311" cy="47.4351" r="1.43011" transform="rotate(-90 27.4311 47.4351)" fill="#C4C4C4"/>
<circle cx="27.4311" cy="42.4302" r="1.43011" transform="rotate(-90 27.4311 42.4302)" fill="#C4C4C4"/>
<circle cx="28.4311" cy="153.467" r="1.43011" transform="rotate(-90 28.4311 153.467)" fill="#C4C4C4"/>
<circle cx="28.4311" cy="148.462" r="1.43011" transform="rotate(-90 28.4311 148.462)" fill="#C4C4C4"/>
<circle cx="28.4311" cy="143.457" r="1.43011" transform="rotate(-90 28.4311 143.457)" fill="#C4C4C4"/>
<circle cx="28.4311" cy="138.452" r="1.43011" transform="rotate(-90 28.4311 138.452)" fill="#C4C4C4"/>
<circle cx="28.4311" cy="133.446" r="1.43011" transform="rotate(-90 28.4311 133.446)" fill="#C4C4C4"/>
<circle cx="28.4311" cy="128.441" r="1.43011" transform="rotate(-90 28.4311 128.441)" fill="#C4C4C4"/>
<circle cx="28.4311" cy="123.435" r="1.43011" transform="rotate(-90 28.4311 123.435)" fill="#C4C4C4"/>
<circle cx="28.4311" cy="118.43" r="1.43011" transform="rotate(-90 28.4311 118.43)" fill="#C4C4C4"/>
<path d="M31.2412 100.354L28.3132 98.1577V93.6844C28.3132 93.2347 27.9496 92.8711 27.4999 92.8711C27.0501 92.8711 26.6865 93.2347 26.6865 93.6844V98.5644C26.6865 98.8206 26.8069 99.0622 27.0119 99.2151L30.2651 101.655C30.4115 101.765 30.5824 101.818 30.7523 101.818C31.0004 101.818 31.2444 101.706 31.4038 101.492C31.6739 101.133 31.6007 100.623 31.2412 100.354Z" fill="white"/>
<path d="M27.5 88C21.7099 88 17 92.7099 17 98.5C17 104.29 21.7099 109 27.5 109C33.2901 109 38 104.29 38 98.5C38 92.7099 33.2901 88 27.5 88ZM27.5 107.373C22.6079 107.373 18.6266 103.392 18.6266 98.5C18.6266 93.6079 22.6079 89.6266 27.5 89.6266C32.393 89.6266 36.3734 93.6079 36.3734 98.5C36.3734 103.392 32.3921 107.373 27.5 107.373Z" fill="white"/>
</svg>
